<?xml version="1.0" encoding="UTF-8" standalone="no"?>
<svg
   width="32"
   height="32"
   version="1.1"
   id="svg1"
   sodipodi:docname="bluesky.svg"
   inkscape:version="1.4-dev (1:1.2.0-alpha1+devel+202309271436+351655d389)"
   xmlns:inkscape="http://www.inkscape.org/namespaces/inkscape"
   xmlns:sodipodi="http://sodipodi.sourceforge.net/DTD/sodipodi-0.dtd"
   xmlns="http://www.w3.org/2000/svg"
   xmlns:svg="http://www.w3.org/2000/svg">
  <defs
     id="defs1" />
  <sodipodi:namedview
     id="namedview1"
     pagecolor="#ffffff"
     bordercolor="#666666"
     borderopacity="1.0"
     inkscape:showpageshadow="2"
     inkscape:pageopacity="0.0"
     inkscape:pagecheckerboard="0"
     inkscape:deskcolor="#d1d1d1"
     showgrid="false"
     inkscape:zoom="10.026667"
     inkscape:cx="24.035904"
     inkscape:cy="33.31117"
     inkscape:window-width="1920"
     inkscape:window-height="995"
     inkscape:window-x="0"
     inkscape:window-y="0"
     inkscape:window-maximized="1"
     inkscape:current-layer="svg1" />
  <path
     id="path2"
     style="fill:#000000;stroke-width:1.5;stroke-linecap:square;stroke-linejoin:round"
     d="M 16 0 A 16 16 0 0 0 0 16 A 16 16 0 0 0 16 32 A 16 16 0 0 0 32 16 A 16 16 0 0 0 16 0 z M 6.7011719 6.3144531 C 7.66588 6.3290378 8.8576341 6.9359713 9.7675781 7.6191406 L 9.7695312 7.6191406 C 12.291838 9.5127312 15.003912 13.351658 16 15.412109 C 16.996163 13.351811 19.710037 9.5126927 22.232422 7.6191406 C 24.052385 6.252802 27 5.1945429 27 8.5585938 C 27 9.2304407 26.614594 14.202579 26.388672 15.009766 C 25.603371 17.816107 22.742712 18.532827 20.197266 18.099609 C 24.646657 18.856876 25.778419 21.364698 23.333984 23.873047 C 18.691519 28.636894 16.661048 22.677332 16.140625 21.150391 C 16.045265 20.870466 16.000656 20.740209 16 20.851562 C 15.99934 20.740206 15.954744 20.870468 15.859375 21.150391 C 15.339179 22.677332 13.308746 28.637046 8.6660156 23.873047 C 6.2215431 21.364698 7.3532666 18.856725 11.802734 18.099609 C 9.2572114 18.532827 6.396515 17.816104 5.6113281 15.009766 C 5.3853991 14.202503 5 9.2303644 5 8.5585938 C 5 6.8765684 5.7364637 6.2998684 6.7011719 6.3144531 z " />
</svg>
